<svg width="174" height="158" viewBox="0 0 174 158" fill="none" xmlns="http://www.w3.org/2000/svg">
<path d="M147.24 23.042L110.252 91.4873C107.632 96.3349 102.566 99.3565 97.0557 99.3564H15C6.71575 99.3564 4.12349e-05 92.6407 0 84.3564C4.12349e-05 76.0722 6.71575 69.3564 15 69.3564H82.2812C85.9614 69.3564 89.3443 67.3346 91.0879 64.0938L120.82 8.82812L142.625 0L147.24 23.042Z" fill="#FF1400"/>
<path d="M160.24 52.042L127.505 112.619C122.266 122.314 112.132 128.356 101.111 128.356H28C19.7158 128.356 13 121.641 13 113.356C13 105.072 19.7158 98.3564 28 98.3564H90.501C97.1251 98.3564 103.214 94.7182 106.353 88.8848L133.82 37.8281L155.625 29L160.24 52.042Z" fill="#5291CE"/>
<path d="M173.24 81.042L143.339 136.373C136.353 149.3 122.842 157.356 108.148 157.356H41C32.7158 157.356 26 150.641 26 142.356C26 134.072 32.7158 127.356 41 127.356H97.5254C107.83 127.356 117.302 121.697 122.184 112.622L146.82 66.8281L168.625 58L173.24 81.042Z" fill="#00814F"/>
</svg>
