<svg width="1920" height="4800" viewBox="0 0 1920 4800" fill="none" xmlns="http://www.w3.org/2000/svg">
    <path fill-rule="evenodd" clip-rule="evenodd" d="M576 0H1440V480H576V0ZM1440 2832V4800H576V2832H1440Z"
          fill="#F8F8F8"/>
    <path d="M3.16646e-05 4320C8.11435e-05 4585.1 171.923 4800 384 4800H3.16646e-05V4320Z" fill="#F8F8F8"/>
    <path d="M384 0C171.923 0 3.47572e-05 214.903 3.16646e-05 480V0H384Z" fill="#F8F8F8"/>
    <path d="M1910.4 4800H1440V2832C1493.02 2832 1536 2778.27 1536 2712V600C1536 533.726 1493.02 480 1440 480V0H1910.4V4800Z"
          fill="#64B5F6"/>
    <path d="M1440 480C1493.02 480 1536 533.726 1536 600V2712C1536 2778.27 1493.02 2832 1440 2832H576H480C426.981 2832 384 2778.27 384 2712V600C384 533.726 426.981 480 480 480H576H1440Z"
          fill="#25303B" fill-opacity="0.8"/>
    <path fill-rule="evenodd" clip-rule="evenodd"
          d="M384 0C171.923 0 3.47572e-05 214.903 3.16646e-05 480V4320C8.11435e-05 4585.1 171.923 4800 384 4800H1440V2832H576H480C426.981 2832 384 2778.27 384 2712V600C384 533.726 426.981 480 480 480H576H1440V0H384Z"
          fill="#F8F8F8"/>
    <path d="M1920 4800H1910.4V0H1920V4800Z" fill="#595959"/>
</svg>
